<svg xmlns="http://www.w3.org/2000/svg" xmlns:xlink="http://www.w3.org/1999/xlink" xmlns:lucid="lucid" width="901.33" height="420"><g transform="translate(20 -3.552713678800501e-15)" lucid:page-tab-id="0_0"><path d="M15.45 87.86h72.92L73.9 142.14H.96z" stroke="#000" stroke-width="2" fill="#fff"/><use xlink:href="#a" transform="matrix(1,0,0,1,5.971063509958611,92.85714285714288) translate(33 26.1)"/><path d="M14.48 182.86H87.4l-14.48 54.28H0z" stroke="#000" stroke-width="2" fill="#fff"/><use xlink:href="#b" transform="matrix(1,0,0,1,5,187.85714285714286) translate(33 26.1)"/><path d="M15.45 264.3h72.92L73.9 318.56H.96z" stroke="#000" stroke-width="2" fill="#fff"/><use xlink:href="#c" transform="matrix(1,0,0,1,5.971063509958611,269.28571428571433) translate(32.525 26.1)"/><path d="M15.45 345.7h72.92L73.9 400H.96z" stroke="#000" stroke-width="2" fill="#fff"/><use xlink:href="#d" transform="matrix(1,0,0,1,5.971063509958611,350.7142857142858) translate(32.525 26.1)"/><path d="M187.87 101.57c7.42 7.42 7.42 19.44 0 26.86-7.4 7.4-19.43 7.4-26.85 0-7.4-7.42-7.4-19.44 0-26.86 7.42-7.4 19.44-7.4 26.85 0zM155.47 115h37.97m-19 19V96" stroke="#c92d39" stroke-width="2" fill="#fff"/><path d="M159.88 155.7H189v27.16H159.9z" stroke="#000" stroke-width="2" fill="#fff"/><use xlink:href="#e" transform="matrix(1,0,0,1,164.8823654804667,160.71428571428572) translate(4.5249999999999995 14.4)"/><path d="M686.45 87.86h72.92l-14.47 54.28h-72.92z" stroke="#000" stroke-width="2" fill="#fff"/><use xlink:href="#a" transform="matrix(1,0,0,1,676.975948891394,92.85714285714288) translate(33 26.1)"/><path d="M685.48 182.86h72.92l-14.48 54.28H671z" stroke="#000" stroke-width="2" fill="#fff"/><use xlink:href="#b" transform="matrix(1,0,0,1,676.0048853814357,187.85714285714286) translate(33 26.1)"/><path d="M685.48 264.3h72.92l-14.48 54.27H671z" stroke="#000" stroke-width="2" fill="#fff"/><use xlink:href="#c" transform="matrix(1,0,0,1,676.0048853814357,269.28571428571433) translate(32.525 26.1)"/><path d="M685.48 345.7h72.92L743.92 400H671z" stroke="#000" stroke-width="2" fill="#fff"/><use xlink:href="#d" transform="matrix(1,0,0,1,676.0048853814357,350.7142857142858) translate(32.525 26.1)"/><path d="M849.68 196.43c6.44 0 11.65 21.27 11.65 47.5s-5.2 47.5-11.65 47.5h-34.96c-6.43 0-11.65-21.27-11.65-47.5s5.22-47.5 11.65-47.5z" stroke="#000" stroke-width="2" fill="#fff"/><use xlink:href="#f" transform="matrix(1,0,0,1,808.0695227358135,201.42857142857144) translate(-2.5 46.1)"/><path d="M304.4 101.57c7.42 7.42 7.42 19.44 0 26.86-7.4 7.4-19.43 7.4-26.85 0-7.4-7.42-7.4-19.44 0-26.86 7.42-7.4 19.44-7.4 26.85 0zM272 115h37.97m-19 19V96M420.93 101.57c7.4 7.42 7.4 19.44 0 26.86-7.42 7.4-19.44 7.4-26.85 0-7.42-7.42-7.42-19.44 0-26.86 7.4-7.4 19.43-7.4 26.85 0zM388.5 115h38m-19 19V96" stroke="#c92d39" stroke-width="2" fill="#fff"/><path d="M174.45 153.7v-.2" stroke="#000" stroke-width="2" fill="none"/><path d="M175.45 154.7h-2v-1h2z"/><path d="M174.45 138.23l4.63 14.27h-9.27z" stroke="#000" stroke-width="2"/><path d="M475.15 101.43H540v27.14h-64.85z" stroke="#ef8d22" stroke-width="2" fill="#fff"/><use xlink:href="#g" transform="matrix(1,0,0,1,480.14827200084966,106.42857142857144) translate(3.0249999999999986 14.4)"/><use xlink:href="#h" transform="matrix(1,0,0,1,480.14827200084966,106.42857142857144) translate(29.025 14.4)"/><path d="M613.17 101.57c7.4 7.42 7.4 19.44 0 26.86-7.42 7.4-19.44 7.4-26.85 0-7.42-7.42-7.42-19.44 0-26.86 7.4-7.4 19.43-7.4 26.85 0zM580.75 115h37.98m-19 19V96" stroke="#c92d39" stroke-width="2" fill="#fff"/><path d="M312.82 40.36c0 11.24-9.78 20.35-21.84 20.35-12.07 0-21.85-9.1-21.85-20.34 0-11.25 9.78-20.36 21.85-20.36 12.06 0 21.84 9.1 21.84 20.36z" fill="#fff"/><path d="M301.56 58.05l-1.02.6-4.95 1.6-4.62.46-5.32-.6-4.88-1.73-.42-.27m-8.03-7.35l-1.48-2.46-1.35-4.18-.37-3.76.5-4.34 1.48-4.14 1.24-1.9m8.05-7.32l1-.6 4.96-1.6 4.62-.46 5.3.6 4.9 1.75.4.27m8.04 7.35l1.48 2.46 1.35 4.17.37 3.76-.5 4.34-1.48 4.14-1.22 1.9" stroke="#000" stroke-width="2" fill="none"/><use xlink:href="#i" transform="matrix(1,0,0,1,274.1270103508139,25.000000000000004) translate(2.549999999999999 19.1)"/><path d="M429.35 40.36c0 11.24-9.78 20.35-21.85 20.35-12.06 0-21.85-9.1-21.85-20.34 0-11.25 9.8-20.36 21.85-20.36 12.07 0 21.85 9.1 21.85 20.36z" fill="#fff"/><path d="M418.1 58.05l-1.03.6-4.95 1.6-4.62.46-5.3-.6-4.9-1.73-.4-.27m-8.05-7.35l-1.47-2.46-1.35-4.18-.38-3.76.5-4.34 1.5-4.14 1.2-1.9m8.07-7.32l1.02-.6 4.95-1.6 4.6-.46 5.32.6 4.88 1.75.42.27m8.03 7.35l1.48 2.46 1.35 4.17.37 3.76-.5 4.34-1.48 4.14-1.23 1.9" stroke="#000" stroke-width="2" fill="none"/><use xlink:href="#j" transform="matrix(1,0,0,1,390.65463154585564,25.000000000000004) translate(4.549999999999999 19.1)"/><path d="M83.16 115h52.8" stroke="#7ab648" stroke-width="2" fill="none"/><path d="M83.2 116h-1.3l.53-2h.76z" fill="#7ab648"/><path d="M151.22 115l-14.27 4.64v-9.28z" stroke="#7ab648" stroke-width="2" fill="#7ab648"/><path d="M195.44 115h57.04" stroke="#000" stroke-width="2" fill="none"/><path d="M195.47 116h-1.16l.14-1-.13-1h1.17z"/><path d="M267.74 115l-14.26 4.64v-9.28z" stroke="#000" stroke-width="2"/><path d="M311.95 115.14l57.1.12" stroke="#000" stroke-width="2" fill="none"/><path d="M311.98 114.14v2h-1.16l.15-1.14-.1-.86z"/><path d="M384.3 115.3l-14.26 4.6.02-9.27z" stroke="#000" stroke-width="2"/><path d="M428.48 115.1h27.17" stroke="#000" stroke-width="2" fill="none"/><path d="M428.5 116.1h-1.15l.15-1.1-.12-.9h1.13z"/><path d="M470.9 115.1l-14.25 4.64v-9.27z" stroke="#000" stroke-width="2"/><path d="M542 115l19.27.1" stroke="#000" stroke-width="2" fill="none"/><path d="M542.03 114v2H541v-2z"/><path d="M576.54 115.18l-14.3 4.56.05-9.27z" stroke="#000" stroke-width="2"/><path d="M620.73 115.1h38.92" stroke="#000" stroke-width="2" fill="none"/><path d="M620.75 116.1h-1.16l.14-1.1-.12-.9h1.13z"/><path d="M674.92 115.1l-14.27 4.62v-9.27z" stroke="#000" stroke-width="2"/><path d="M82.2 210h576.5" stroke="#3aa6dd" stroke-width="2" fill="none"/><path d="M82.22 211h-1.3l.54-2h.76z" fill="#3aa6dd"/><path d="M673.97 210l-14.26 4.64v-9.28z" stroke="#3aa6dd" stroke-width="2" fill="#3aa6dd"/><path d="M83.16 291.43H658.7" stroke="red" stroke-width="2" fill="none"/><path d="M83.2 292.43h-1.3l.53-2h.76z" fill="red"/><path d="M673.97 291.43l-14.26 4.63v-9.27z" stroke="red" stroke-width="2" fill="red"/><path d="M83.16 372.86H658.7" stroke="#834187" stroke-width="2" fill="none"/><path d="M83.2 373.86h-1.3l.53-2h.76z" fill="#834187"/><path d="M673.97 372.86l-14.26 4.63v-9.28z" stroke="#834187" stroke-width="2" fill="#834187"/><path d="M174.84 202.35l.14 6.65" stroke="#000" stroke-width="2" fill="none"/><path d="M174.52 187.1l4.93 14.16-9.26.2z" stroke="#000" stroke-width="2"/><path d="M174.98 208.97L175 210M187.3 202.36V205c2.76 0 5 2.23 5 5 .02 2.75-2.2 5-4.98 5l.17 75.43" stroke="#000" stroke-width="2" fill="none"/><path d="M187.26 187.1l4.67 14.25-9.27.02z" stroke="#000" stroke-width="2"/><path d="M187.5 290.4v1.03M162 202.36V205c2.76 0 5 2.22 5.02 4.98.02 2.76-2.2 5-4.97 5.02l.33 71.43c2.76 0 5 2.2 5.02 4.98 0 2.77-2.22 5.02-4.98 5.03l.35 75.43" stroke="#000" stroke-width="2" fill="none"/><path d="M161.92 187.1l4.7 14.24-9.27.04z" stroke="#000" stroke-width="2"/><path d="M162.77 371.83v1.03M754.17 115h23.45v128.93h5.95" stroke="#000" stroke-width="2" fill="none"/><path d="M754.2 116h-1.3l.54-2h.75z"/><path d="M798.83 243.93l-14.26 4.63v-9.27z" stroke="#000" stroke-width="2"/><path d="M753.2 210h23.95v33.22h6.45" stroke="#000" stroke-width="2" fill="none"/><path d="M753.22 211h-1.3l.54-2h.76z"/><path d="M798.87 243.22l-14.27 4.64v-9.27z" stroke="#000" stroke-width="2"/><path d="M753.2 291.43h23.93v-47.5h6.44" stroke="#000" stroke-width="2" fill="none"/><path d="M753.22 292.43h-1.3l.54-2h.76z"/><path d="M798.83 243.93l-14.26 4.63v-9.27z" stroke="#000" stroke-width="2"/><path d="M753.2 372.86h23.93V243.93h6.44" stroke="#000" stroke-width="2" fill="none"/><path d="M753.22 373.86h-1.3l.54-2h.76z"/><path d="M798.83 243.93l-14.26 4.63v-9.27z" stroke="#000" stroke-width="2"/><path d="M407.5 62.72l.1 13.8" stroke="#000" stroke-width="2" fill="none"/><path d="M407.5 61.72l1-.1v1.12h-2v-1.13z"/><path d="M407.7 91.8L403 77.56l9.27-.06z" stroke="#000" stroke-width="2"/><path d="M290.98 62.72l.02 13.8" stroke="#000" stroke-width="2" fill="none"/><path d="M290.97 61.72l1-.1v1.12h-2v-1.13z"/><path d="M291.02 91.78l-4.66-14.26 9.28-.02z" stroke="#000" stroke-width="2"/><defs><path fill="#7ab648" d="M205 0l-28-72H64L36 0H1l101-248h38L239 0h-34zm-38-99l-47-123c-12 45-31 82-46 123h93" id="k"/><use transform="matrix(0.05,0,0,0.05,0,0)" xlink:href="#k" id="a"/><path fill="#3aa6dd" d="M160-131c35 5 61 23 61 61C221 17 115-2 30 0v-248c76 3 177-17 177 60 0 33-19 50-47 57zm-97-11c50-1 110 9 110-42 0-47-63-36-110-37v79zm0 115c55-2 124 14 124-45 0-56-70-42-124-44v89" id="l"/><use transform="matrix(0.05,0,0,0.05,0,0)" xlink:href="#l" id="b"/><path fill="red" d="M212-179c-10-28-35-45-73-45-59 0-87 40-87 99 0 60 29 101 89 101 43 0 62-24 78-52l27 14C228-24 195 4 139 4 59 4 22-46 18-125c-6-104 99-153 187-111 19 9 31 26 39 46" id="m"/><use transform="matrix(0.05,0,0,0.05,0,0)" xlink:href="#m" id="c"/><path fill="#834187" d="M30-248c118-7 216 8 213 122C240-48 200 0 122 0H30v-248zM63-27c89 8 146-16 146-99s-60-101-146-95v194" id="n"/><use transform="matrix(0.05,0,0,0.05,0,0)" xlink:href="#n" id="d"/><path fill="#666" d="M63-220v92h138v28H63V0H30v-248h175v28H63" id="o"/><use transform="matrix(0.05,0,0,0.05,0,0)" xlink:href="#o" id="e"/><path fill="#666" d="M140-251c81 0 123 46 123 126C263-46 219 4 140 4 59 4 17-45 17-125s42-126 123-126zm0 227c63 0 89-41 89-101s-29-99-89-99c-61 0-89 39-89 99S79-25 140-24" id="p"/><path fill="#666" d="M84 4C-5 8 30-112 23-190h32v120c0 31 7 50 39 49 72-2 45-101 50-169h31l1 190h-30c-1-10 1-25-2-33-11 22-28 36-60 37" id="q"/><path fill="#666" d="M59-47c-2 24 18 29 38 22v24C64 9 27 4 27-40v-127H5v-23h24l9-43h21v43h35v23H59v120" id="r"/><path fill="#666" d="M115-194c55 1 70 41 70 98S169 2 115 4C84 4 66-9 55-30l1 105H24l-1-265h31l2 30c10-21 28-34 59-34zm-8 174c40 0 45-34 45-75s-6-73-45-74c-42 0-51 32-51 76 0 43 10 73 51 73" id="s"/><g id="f"><use transform="matrix(0.05,0,0,0.05,0,0)" xlink:href="#p"/><use transform="matrix(0.05,0,0,0.05,14,0)" xlink:href="#q"/><use transform="matrix(0.05,0,0,0.05,24,0)" xlink:href="#r"/><use transform="matrix(0.05,0,0,0.05,29,0)" xlink:href="#s"/><use transform="matrix(0.05,0,0,0.05,39,0)" xlink:href="#q"/><use transform="matrix(0.05,0,0,0.05,49,0)" xlink:href="#r"/></g><path fill="#666" d="M18-100v-36l175-74v27L42-118l151 64v27" id="t"/><g id="g"><use transform="matrix(0.05,0,0,0.05,0,0)" xlink:href="#t"/><use transform="matrix(0.05,0,0,0.05,10.5,0)" xlink:href="#t"/></g><path fill="#666" d="M135-143c-3-34-86-38-87 0 15 53 115 12 119 90S17 21 10-45l28-5c4 36 97 45 98 0-10-56-113-15-118-90-4-57 82-63 122-42 12 7 21 19 24 35" id="u"/><path fill="#666" d="M26 75v-336h71v23H56V52h41v23H26" id="v"/><path fill="#666" d="M24-231v-30h32v30H24zM24 0v-190h32V0H24" id="w"/><path fill="#666" d="M3 75V52h41v-290H3v-23h71V75H3" id="x"/><g id="h"><use transform="matrix(0.05,0,0,0.05,0,0)" xlink:href="#u"/><use transform="matrix(0.05,0,0,0.05,9,0)" xlink:href="#v"/><use transform="matrix(0.05,0,0,0.05,14,0)" xlink:href="#w"/><use transform="matrix(0.05,0,0,0.05,17.95,0)" xlink:href="#x"/></g><path fill="#666" d="M240 0l2-218c-23 76-54 145-80 218h-23L58-218 59 0H30v-248h44l77 211c21-75 51-140 76-211h43V0h-30" id="y"/><g id="i"><use transform="matrix(0.05,0,0,0.05,0,0)" xlink:href="#y"/><use transform="matrix(0.05,0,0,0.05,14.950000000000001,0)" xlink:href="#v"/><use transform="matrix(0.05,0,0,0.05,19.950000000000003,0)" xlink:href="#w"/><use transform="matrix(0.05,0,0,0.05,23.900000000000002,0)" xlink:href="#x"/></g><path fill="#666" d="M127-220V0H93v-220H8v-28h204v28h-85" id="z"/><g id="j"><use transform="matrix(0.05,0,0,0.05,0,0)" xlink:href="#z"/><use transform="matrix(0.05,0,0,0.05,10.950000000000001,0)" xlink:href="#v"/><use transform="matrix(0.05,0,0,0.05,15.950000000000001,0)" xlink:href="#w"/><use transform="matrix(0.05,0,0,0.05,19.900000000000002,0)" xlink:href="#x"/></g></defs></g></svg>